<svg width="153" height="38" viewBox="0 0 153 38" fill="none" xmlns="http://www.w3.org/2000/svg">
<path fill-rule="evenodd" clip-rule="evenodd" d="M21.041 2.27486C19.0923 2.44334 17.3044 3.38488 16.1295 4.86131L15.657 5.45506L14.7494 5.46271C13.4672 5.47347 12.4668 5.77435 11.5694 6.41909L11.207 6.67945L10.8446 6.41909C9.96667 5.7883 8.9377 5.47191 7.75584 5.46939C6.83122 5.46731 6.27414 5.58851 5.45506 5.96999C2.68774 7.25865 1.56466 10.621 2.97979 13.3807C3.43097 14.2605 4.40175 15.2212 5.27159 15.6488C6.02743 16.0203 6.905 16.2539 7.54506 16.2539H8.01561V18.0993C8.01561 19.8801 8.02125 19.952 8.17651 20.1493C8.50938 20.5725 8.26075 20.5586 15.4537 20.5584C21.6156 20.5584 22.0979 20.5492 22.3346 20.4285C22.4745 20.3572 22.6582 20.2046 22.7428 20.0894C22.887 19.8931 22.8979 19.7639 22.9205 18.0054L22.9446 16.1307L23.3287 16.0351C25.3863 15.5231 27.2757 13.8354 28.0818 11.7893C28.4786 10.7821 28.637 9.54674 28.5064 8.47792C28.148 5.54479 26.0921 3.19332 23.2684 2.48705C22.6033 2.32066 21.608 2.22588 21.041 2.27486ZM20.7247 4.15943C19.2488 4.42424 17.8383 5.3758 17.1496 6.57153C16.6318 7.4704 16.3936 7.59041 15.5212 7.39195C15.2345 7.32678 14.8496 7.27342 14.6658 7.27342C13.7772 7.27342 12.8464 7.65787 12.144 8.31486C11.3481 9.05942 11.0725 9.06499 10.3024 8.35197C8.96754 7.11608 7.1943 6.93402 5.77613 7.88729C4.60785 8.67259 3.98642 10.093 4.22555 11.4312C4.46595 12.7763 5.46411 13.9032 6.74884 14.2802C6.98233 14.3487 7.41948 14.3978 7.7879 14.3969C8.78815 14.3944 9.6427 14.0315 10.3164 13.323C10.6365 12.9863 10.9066 12.8398 11.207 12.8398C11.8855 12.8398 12.3077 13.5541 11.9911 14.1664C11.8137 14.5095 10.9409 15.2683 10.3519 15.5916L9.79686 15.8962V17.2996V18.7031H15.4375H21.0781V17.4838V16.2646L20.6513 16.2128C20.0042 16.1342 19.0611 15.8409 18.4222 15.5197L17.8491 15.2316L17.3685 15.5222C16.7088 15.9211 15.8474 16.1823 15.0247 16.2327L14.3523 16.274L14.0808 16.0356C13.7659 15.7591 13.6735 15.4267 13.8027 15.0354C13.9363 14.6303 14.2205 14.4742 14.9641 14.3975C15.7141 14.3201 16.4391 14.012 17.0316 13.5189C17.4164 13.1986 17.7538 13.0845 18.044 13.1766C18.1376 13.2063 18.403 13.3596 18.634 13.5172C19.5281 14.1276 20.4101 14.3956 21.5301 14.3973C23.899 14.4009 25.9285 12.8395 26.5452 10.539C26.7407 9.80962 26.7218 8.57997 26.504 7.86717C26.2169 6.92727 25.8628 6.33901 25.1622 5.63853C24.4701 4.94637 23.8762 4.58596 22.9711 4.30883C22.3745 4.1261 21.3062 4.05507 20.7247 4.15943ZM29.7089 13.1745C28.3129 13.4778 26.9438 14.6701 26.2386 16.1965C25.7704 17.2098 25.6434 17.8466 25.6501 19.1484C25.657 20.5321 25.7854 21.1024 26.345 22.2377C26.7423 23.0437 27.4646 23.9122 28.103 24.3515L28.4258 24.5735V26.6571C28.4258 28.918 28.3486 29.7193 28.0161 30.9121C27.6343 32.2816 27.5808 32.6403 27.6787 33.1718C27.9678 34.741 29.3015 35.7947 30.8503 35.6776C31.9365 35.5954 32.8165 34.996 33.3068 34.0041C33.5694 33.4728 33.5838 33.4061 33.5812 32.7344C33.579 32.1538 33.5356 31.8843 33.341 31.2461C32.9213 29.869 32.8677 29.415 32.8269 26.9006L32.7894 24.5962L33.1038 24.3881C34.3164 23.5857 35.2503 22.0528 35.547 20.3779C35.6629 19.7233 35.6424 18.3362 35.5071 17.6795C34.8735 14.6045 32.3064 12.61 29.7089 13.1745ZM28.4053 16.0932C27.3098 17.5296 27.1424 19.7976 28.0065 21.4964C28.279 22.032 28.7612 22.6513 28.6921 22.3769C28.4345 21.354 28.3751 17.7506 28.5947 16.4794C28.6614 16.0932 28.7071 15.7684 28.6962 15.7574C28.6853 15.7465 28.5544 15.8976 28.4053 16.0932ZM30.5158 16.1568C30.1856 17.866 30.2112 20.8225 30.5693 22.3398C30.6277 22.5869 30.6329 22.5905 30.678 22.414C31.0492 20.9607 31.1178 18.4209 30.8347 16.6184C30.768 16.1934 30.6876 15.8187 30.6563 15.7857C30.6248 15.7527 30.5616 15.9197 30.5158 16.1568ZM32.585 15.8513C32.5833 15.8953 32.6354 16.296 32.7008 16.742C32.9012 18.11 32.862 20.5322 32.6127 22.1914L32.5735 22.4512L32.8243 22.1758C33.438 21.5018 33.7924 20.3988 33.797 19.1484C33.8007 18.1636 33.679 17.6023 33.2903 16.8105C33.0417 16.3044 32.5911 15.6914 32.585 15.8513ZM10.2732 22.0407C10.1883 22.075 10.0296 22.2091 9.92065 22.3385C9.74898 22.5426 9.72279 22.6397 9.7239 23.0692C9.72754 24.458 10.3063 25.7994 11.374 26.8938L11.9492 27.4833V28.1348V28.7862L9.48143 28.8136C7.14599 28.8396 6.98582 28.8502 6.49412 29.0119C5.58064 29.3123 4.8576 29.7394 4.18547 30.3756C3.14849 31.3573 2.55088 32.5272 2.37921 33.9119C2.28503 34.672 2.36044 35.0176 2.67898 35.2856L2.90587 35.4765L14.6453 35.474C24.0506 35.4718 26.4188 35.4524 26.5562 35.3761C26.9732 35.1447 27.1357 34.5523 26.8942 34.1436C26.6179 33.6758 26.8593 33.6953 21.345 33.6953H16.3281V32.9879C16.3281 32.3799 16.3464 32.2745 16.458 32.2377C17.1287 32.0168 18.0803 31.3081 18.3282 30.8451L18.4313 30.6523H20.9287C23.9908 30.6523 24.0992 30.6744 25.2631 31.5358C25.8219 31.9493 26.1536 32.0183 26.564 31.806C26.8441 31.6611 27.0437 31.2295 26.9904 30.8837C26.9048 30.3278 25.6541 29.4306 24.3808 29.0119C23.8891 28.8502 23.729 28.8396 21.3935 28.8136L18.9258 28.7862L18.9258 28.1421L18.926 27.498L19.501 26.8994C20.5787 25.7776 21.1474 24.4549 21.1511 23.0623C21.1522 22.5982 21.1341 22.5406 20.9111 22.2991C20.6089 21.9717 20.249 21.8973 19.86 22.0819C19.5018 22.252 19.3788 22.5104 19.2918 23.2759C19.131 24.6903 18.363 25.7832 17.1042 26.3887C15.3686 27.2234 13.2716 26.6449 12.2041 25.0367C11.8239 24.4638 11.6508 23.9726 11.5769 23.2564C11.5426 22.9227 11.4634 22.551 11.401 22.4305C11.2141 22.069 10.669 21.8806 10.2732 22.0407ZM30.2587 27.331C30.2165 29.6996 30.1542 30.1922 29.6893 31.8336C29.4223 32.7759 29.4301 33.0349 29.7364 33.3989C30.2561 34.0165 31.1615 33.9839 31.5971 33.3318C31.8189 32.9999 31.8151 32.5819 31.5832 31.8135C31.133 30.3206 30.9499 28.8107 30.9494 26.5889L30.9492 25.1601H30.6233H30.2975L30.2587 27.331ZM13.8047 28.7423C13.8047 29.7911 14.4781 30.5274 15.4375 30.5274C16.3887 30.5274 17.0703 29.81 17.0703 28.809V28.3711L16.6435 28.4715C16.4089 28.5267 15.8661 28.5719 15.4375 28.5719C15.0089 28.5719 14.4661 28.5267 14.2314 28.4715L13.8047 28.3711V28.7423ZM6.90062 30.8213C5.90267 31.1615 5.01635 31.9463 4.56392 32.8904C4.13196 33.7917 3.54964 33.6953 9.42576 33.6953H14.5469V32.9879C14.5469 32.3799 14.5286 32.2745 14.417 32.2377C13.7463 32.0168 12.7946 31.3081 12.5468 30.8451L12.4436 30.6523L9.9142 30.6543C7.49704 30.656 7.36322 30.6635 6.90062 30.8213Z" fill="#040404"/>
<path d="M48.984 14.156L49.264 16.564L49.152 16.368C49.6 15.5093 50.2067 14.8373 50.972 14.352C51.756 13.8667 52.6613 13.624 53.688 13.624C54.3413 13.624 54.92 13.7267 55.424 13.932C55.928 14.1373 56.348 14.4267 56.684 14.8C57.0387 15.1733 57.272 15.64 57.384 16.2L57.216 16.256C57.7013 15.4533 58.3267 14.8187 59.092 14.352C59.8573 13.8667 60.6693 13.624 61.528 13.624C62.6853 13.624 63.6093 13.96 64.3 14.632C64.9907 15.2853 65.3453 16.1347 65.364 17.18V26H62.256V18.412C62.2373 17.8333 62.116 17.3573 61.892 16.984C61.668 16.592 61.248 16.3773 60.632 16.34C59.96 16.34 59.3813 16.5547 58.896 16.984C58.4107 17.3947 58.028 17.936 57.748 18.608C57.4867 19.2613 57.356 19.9613 57.356 20.708V26H54.192V18.412C54.1733 17.8333 54.0427 17.3573 53.8 16.984C53.5573 16.592 53.128 16.3773 52.512 16.34C51.8587 16.34 51.2893 16.5547 50.804 16.984C50.3187 17.3947 49.9453 17.936 49.684 18.608C49.4227 19.2613 49.292 19.952 49.292 20.68V26H46.156V14.156H48.984ZM73.0876 26.308C71.6876 26.308 70.493 26.0373 69.5036 25.496C68.5143 24.9547 67.7583 24.208 67.2356 23.256C66.713 22.2853 66.4516 21.1933 66.4516 19.98C66.4516 18.7853 66.7503 17.712 67.3476 16.76C67.945 15.808 68.7476 15.052 69.7556 14.492C70.7823 13.9133 71.9116 13.624 73.1436 13.624C74.7676 13.624 76.1023 14.1 77.1476 15.052C78.2116 15.9853 78.921 17.3107 79.2756 19.028L69.7276 22.248L68.9996 20.484L76.4476 17.824L75.8036 18.188C75.5983 17.628 75.2623 17.1427 74.7956 16.732C74.3476 16.3213 73.713 16.116 72.8916 16.116C72.2383 16.116 71.6596 16.2747 71.1556 16.592C70.6516 16.8907 70.2503 17.32 69.9516 17.88C69.6716 18.4213 69.5316 19.0653 69.5316 19.812C69.5316 20.5773 69.6903 21.2493 70.0076 21.828C70.325 22.4067 70.7543 22.8547 71.2956 23.172C71.837 23.4707 72.453 23.62 73.1436 23.62C73.629 23.62 74.0956 23.536 74.5436 23.368C74.9916 23.2 75.4116 22.976 75.8036 22.696L77.2316 25.02C76.6156 25.412 75.9343 25.7293 75.1876 25.972C74.4596 26.196 73.7596 26.308 73.0876 26.308ZM85.1053 26.308C83.9853 26.308 82.968 26.0747 82.0533 25.608C81.1573 25.1413 80.448 24.4507 79.9253 23.536C79.4026 22.6027 79.1413 21.4547 79.1413 20.092C79.1413 18.748 79.412 17.6 79.9533 16.648C80.5133 15.6773 81.2413 14.9307 82.1373 14.408C83.052 13.8853 84.0413 13.624 85.1053 13.624C86.244 13.624 87.1586 13.848 87.8493 14.296C88.5586 14.744 89.1093 15.276 89.5013 15.892L89.3333 16.34L89.6413 14.156H92.5253V26H89.3893V23.116L89.6973 23.872C89.6226 23.984 89.4733 24.1707 89.2493 24.432C89.0253 24.6747 88.7173 24.9453 88.3253 25.244C87.9333 25.5427 87.4666 25.7947 86.9253 26C86.4026 26.2053 85.796 26.308 85.1053 26.308ZM85.9733 23.732C86.5333 23.732 87.0373 23.6293 87.4853 23.424C87.952 23.2187 88.344 22.9293 88.6613 22.556C88.9973 22.1827 89.24 21.7347 89.3893 21.212V18.636C89.24 18.1507 88.9973 17.7307 88.6613 17.376C88.3253 17.0027 87.9146 16.7133 87.4293 16.508C86.9626 16.3027 86.44 16.2 85.8613 16.2C85.2266 16.2 84.6386 16.3587 84.0973 16.676C83.556 16.9933 83.1173 17.432 82.7813 17.992C82.464 18.552 82.3053 19.196 82.3053 19.924C82.3053 20.6333 82.4733 21.2773 82.8093 21.856C83.1453 22.4347 83.5933 22.892 84.1533 23.228C84.7133 23.564 85.32 23.732 85.9733 23.732ZM94.6157 4.16H97.7517V26H94.6157V4.16ZM99.1692 18.44H104.405V21.184H99.1692V18.44ZM111.088 26.308C109.968 26.308 108.951 26.0747 108.036 25.608C107.14 25.1413 106.431 24.4507 105.908 23.536C105.386 22.6027 105.124 21.4547 105.124 20.092C105.124 18.748 105.395 17.6 105.936 16.648C106.496 15.6773 107.224 14.9307 108.12 14.408C109.035 13.8853 110.024 13.624 111.088 13.624C112.227 13.624 113.142 13.848 113.832 14.296C114.542 14.744 115.092 15.276 115.484 15.892L115.316 16.34L115.624 14.156H118.508V26H115.372V23.116L115.68 23.872C115.606 23.984 115.456 24.1707 115.232 24.432C115.008 24.6747 114.7 24.9453 114.308 25.244C113.916 25.5427 113.45 25.7947 112.908 26C112.386 26.2053 111.779 26.308 111.088 26.308ZM111.956 23.732C112.516 23.732 113.02 23.6293 113.468 23.424C113.935 23.2187 114.327 22.9293 114.644 22.556C114.98 22.1827 115.223 21.7347 115.372 21.212V18.636C115.223 18.1507 114.98 17.7307 114.644 17.376C114.308 17.0027 113.898 16.7133 113.412 16.508C112.946 16.3027 112.423 16.2 111.844 16.2C111.21 16.2 110.622 16.3587 110.08 16.676C109.539 16.9933 109.1 17.432 108.764 17.992C108.447 18.552 108.288 19.196 108.288 19.924C108.288 20.6333 108.456 21.2773 108.792 21.856C109.128 22.4347 109.576 22.892 110.136 23.228C110.696 23.564 111.303 23.732 111.956 23.732ZM127.795 26.308C126.973 26.308 126.18 26.1307 125.415 25.776C124.649 25.4213 124.033 24.936 123.567 24.32L123.735 23.368V31.684H120.599V13.932H123.315L123.735 16.676L123.455 15.836C124.033 15.2013 124.733 14.6787 125.555 14.268C126.395 13.8387 127.337 13.624 128.383 13.624C129.503 13.624 130.501 13.8853 131.379 14.408C132.256 14.9307 132.947 15.6773 133.451 16.648C133.973 17.6 134.235 18.7293 134.235 20.036C134.235 21.3427 133.955 22.4627 133.395 23.396C132.835 24.3293 132.069 25.048 131.099 25.552C130.128 26.056 129.027 26.308 127.795 26.308ZM127.179 23.816C127.869 23.816 128.504 23.6573 129.083 23.34C129.68 23.0227 130.156 22.584 130.511 22.024C130.865 21.4453 131.043 20.8013 131.043 20.092C131.043 19.3453 130.875 18.692 130.539 18.132C130.221 17.5533 129.783 17.1053 129.223 16.788C128.681 16.452 128.075 16.284 127.403 16.284C126.787 16.284 126.236 16.3867 125.751 16.592C125.265 16.7973 124.855 17.096 124.519 17.488C124.183 17.8613 123.921 18.3093 123.735 18.832V21.212C123.865 21.716 124.089 22.164 124.407 22.556C124.724 22.948 125.125 23.256 125.611 23.48C126.096 23.704 126.619 23.816 127.179 23.816ZM142.508 26.308C141.687 26.308 140.893 26.1307 140.128 25.776C139.363 25.4213 138.747 24.936 138.28 24.32L138.448 23.368V31.684H135.312V13.932H138.028L138.448 16.676L138.168 15.836C138.747 15.2013 139.447 14.6787 140.268 14.268C141.108 13.8387 142.051 13.624 143.096 13.624C144.216 13.624 145.215 13.8853 146.092 14.408C146.969 14.9307 147.66 15.6773 148.164 16.648C148.687 17.6 148.948 18.7293 148.948 20.036C148.948 21.3427 148.668 22.4627 148.108 23.396C147.548 24.3293 146.783 25.048 145.812 25.552C144.841 26.056 143.74 26.308 142.508 26.308ZM141.892 23.816C142.583 23.816 143.217 23.6573 143.796 23.34C144.393 23.0227 144.869 22.584 145.224 22.024C145.579 21.4453 145.756 20.8013 145.756 20.092C145.756 19.3453 145.588 18.692 145.252 18.132C144.935 17.5533 144.496 17.1053 143.936 16.788C143.395 16.452 142.788 16.284 142.116 16.284C141.5 16.284 140.949 16.3867 140.464 16.592C139.979 16.7973 139.568 17.096 139.232 17.488C138.896 17.8613 138.635 18.3093 138.448 18.832V21.212C138.579 21.716 138.803 22.164 139.12 22.556C139.437 22.948 139.839 23.256 140.324 23.48C140.809 23.704 141.332 23.816 141.892 23.816ZM148.597 24.292C148.597 23.8067 148.774 23.4053 149.129 23.088C149.484 22.752 149.876 22.584 150.305 22.584C150.697 22.584 151.07 22.752 151.425 23.088C151.78 23.4053 151.957 23.8067 151.957 24.292C151.957 24.8147 151.78 25.2347 151.425 25.552C151.07 25.8507 150.697 26 150.305 26C149.876 26 149.484 25.8507 149.129 25.552C148.774 25.2347 148.597 24.8147 148.597 24.292Z" fill="black"/>
</svg>
